<svg width="32" height="38" viewBox="0 0 32 38" fill="none" xmlns="http://www.w3.org/2000/svg">
<g filter="url(#filter0_f_115_107)">
<ellipse cx="9.86466" cy="2.31118" rx="9.86466" ry="2.31118" transform="matrix(1 0 0 -1 6.13525 34)" fill="#707070" fill-opacity="0.3"/>
</g>
<path d="M32 17.2568C32 20.8801 30.3143 24.355 27.3137 26.9171C24.3131 29.4791 20.2435 30.9185 16 30.9185C11.7565 30.9185 7.68688 29.4791 4.68629 26.9171C1.68571 24.355 6.40745e-07 20.8801 0 17.2568L16 17.2568H32Z" fill="#F3F3F3"/>
<ellipse cx="16" cy="5.9577" rx="16" ry="5.9577" transform="matrix(1 0 0 -1 0 23.1118)" fill="#5B5B5B"/>
<ellipse cx="10.3459" cy="3.90332" rx="10.3459" ry="3.90332" transform="matrix(1 0 0 -1 5.65405 21.0574)" fill="#242424"/>
<mask id="mask0_115_107" style="mask-type:alpha" maskUnits="userSpaceOnUse" x="9" y="0" width="14" height="20">
<path fill-rule="evenodd" clip-rule="evenodd" d="M22.3759 0H9.62402V17.2568H9.62406C9.62406 18.6183 12.4787 19.7221 16 19.7221C19.5213 19.7221 22.3759 18.6183 22.3759 17.2568C22.3759 17.254 22.3759 17.2512 22.3759 17.2484V0Z" fill="#C4C4C4"/>
</mask>
<g mask="url(#mask0_115_107)">
<ellipse cx="16" cy="17.1541" rx="6.37594" ry="5.44411" fill="#FFC806"/>
<mask id="mask1_115_107" style="mask-type:alpha" maskUnits="userSpaceOnUse" x="7" y="4" width="18" height="16">
<path fill-rule="evenodd" clip-rule="evenodd" d="M22.7125 9.93391C23.3895 9.11159 24.1521 7.94235 24.5095 6.71677C24.9073 5.35241 23.4618 4.36502 22.2954 5.17702C21.2723 5.8893 20.5401 6.91601 20.0724 7.83487C19.3361 7.56756 18.4766 7.42311 17.4756 7.42311C15.4354 7.42311 13.7768 8.01666 12.5261 8.95341C11.9408 8.20611 10.9421 7.2376 9.71207 6.69044C8.34556 6.08256 7.25272 7.41575 8.14104 8.59471C8.89341 9.59324 9.9561 10.4225 10.7439 10.9183C10.0795 12.0148 9.73853 13.2607 9.73853 14.4887C9.73853 14.9918 9.61954 15.3317 9.51588 15.6278C9.37206 16.0385 9.25774 16.365 9.53166 16.9264C10.1523 18.1982 13.5826 19.1167 17.1033 19.1167C22.1304 19.1167 23.4336 17.9862 24.2611 16.7851C24.8766 15.8916 24.4864 14.9662 24.211 14.3128C24.1161 14.0877 24.0348 13.8949 24.0129 13.7468C23.7967 12.2843 23.3954 10.9759 22.7125 9.93391Z" fill="#FEDC08"/>
</mask>
<g mask="url(#mask1_115_107)">
<path fill-rule="evenodd" clip-rule="evenodd" d="M22.7124 9.93386C23.6836 8.75413 24.8313 6.86037 24.7053 5.1106C24.6713 4.6381 24.2089 4.34107 23.7539 4.47323C21.94 5.00017 20.7381 6.52679 20.0723 7.83482C19.336 7.56752 18.4766 7.42307 17.4756 7.42307C15.3716 7.42307 13.6881 7.9676 12.4536 8.86244C11.4795 7.65841 9.49667 5.96901 7.21802 6.30908C7.27281 8.24244 9.3434 10.023 10.6845 10.8806C10.1703 11.8468 9.93334 12.9496 9.98671 14.1001C10.0037 14.4656 9.92389 14.7586 9.84412 15.0515C9.73115 15.4663 9.61817 15.8812 9.77985 16.5024C10.1299 17.8474 13.7894 18.7281 17.3101 18.7281C22.3372 18.7281 24.0542 17.3149 24.4266 16.1491C24.6845 15.3416 24.4276 14.7774 24.2169 14.3149C24.1234 14.1097 24.0391 13.9244 24.0128 13.7468C23.7966 12.2843 23.3953 10.9758 22.7124 9.93386Z" fill="#FFEC3D"/>
<ellipse cx="13.2555" cy="13.2169" rx="0.744749" ry="0.635906" fill="#0D0D0C"/>
<path d="M6.30444 5.83044L10.6419 6.46902C10.6419 6.46902 9.06724 6.56653 8.34696 7.29098C7.87641 7.9806 8.12612 9.23447 8.12612 9.23447L6.30444 5.83044Z" fill="#191919"/>
<path d="M24.2093 9.20036L25.9893 4.13619L22.1354 2.568L19.6868 5.82701C19.6868 5.82701 22.0658 5.67046 23.3421 6.54281C24.2357 7.41309 24.2093 9.20036 24.2093 9.20036Z" fill="#191919"/>
<ellipse cx="20.0409" cy="13.1462" rx="0.744749" ry="0.635905" fill="#0D0D0C"/>
<path d="M24.56 15.6256C24.4811 16.3108 23.8374 16.8175 23.1222 16.7575C22.407 16.6974 22.0567 16.0933 22.1357 15.4081C22.2146 14.7229 22.8583 14.2162 23.5735 14.2762C24.2887 14.3363 24.639 14.9404 24.56 15.6256Z" fill="#FC4012"/>
<path d="M9.68595 15.7122C9.76327 16.3834 10.3775 16.8813 11.0579 16.8241C11.7382 16.767 12.0378 16.129 11.9605 15.4578C11.8832 14.7865 11.3249 14.3187 10.6446 14.3758C9.96421 14.433 9.60864 15.041 9.68595 15.7122Z" fill="#FC4012"/>
<path fill-rule="evenodd" clip-rule="evenodd" d="M15.7378 15.1953C15.8749 15.1953 15.986 15.2902 15.986 15.4072C15.986 15.6365 16.0573 15.8087 16.1561 15.9182C16.2517 16.0242 16.3775 16.0785 16.5239 16.0785C16.5634 16.0785 16.6705 16.0621 16.7607 16.0119V16.0119C17.0488 15.8515 17.2402 15.8515 17.5283 16.0119V16.0119C17.6185 16.0621 17.7256 16.0785 17.7651 16.0785C17.8777 16.0785 17.9964 16.0186 18.0998 15.8808C18.2025 15.744 18.2616 15.5631 18.2616 15.4072C18.2616 15.2902 18.3728 15.1953 18.5099 15.1953C18.647 15.1953 18.7581 15.2902 18.7581 15.4072C18.7581 15.6416 18.6734 15.9023 18.5179 16.1095C18.3632 16.3157 18.1096 16.5024 17.7651 16.5024C17.6392 16.5024 17.4359 16.4665 17.2572 16.367C17.2183 16.3454 17.1803 16.3205 17.1445 16.2922C17.1087 16.3205 17.0707 16.3454 17.0318 16.367C16.8531 16.4665 16.6498 16.5024 16.5239 16.5024C16.2132 16.5024 15.9459 16.38 15.7627 16.1769C15.5828 15.9773 15.4895 15.7079 15.4895 15.4072C15.4895 15.2902 15.6006 15.1953 15.7378 15.1953Z" fill="black"/>
</g>
</g>
<mask id="mask2_115_107" style="mask-type:alpha" maskUnits="userSpaceOnUse" x="0" y="2" width="32" height="21">
<path d="M27.3137 6.98028C30.3388 9.56326 32 13.1001 32 16.7432C32 20.0336 24.8366 22.7009 16 22.7009C7.16345 22.7009 0 20.0336 0 16.7432C0 13.1001 1.6612 9.56326 4.6863 6.98028C7.68687 4.41823 11.7565 2.97888 16 2.97888C20.2435 2.97888 24.3131 4.41823 27.3137 6.98028Z" fill="#F22424"/>
</mask>
<g mask="url(#mask2_115_107)">
<path d="M27.3137 6.98028C30.3388 9.56326 32 13.1001 32 16.7432C32 20.0336 24.8366 22.7009 16 22.7009C7.16345 22.7009 0 20.0336 0 16.7432C0 13.1001 1.6612 9.56326 4.6863 6.98028C7.68687 4.41823 11.7565 2.97888 16 2.97888C20.2435 2.97888 24.3131 4.41823 27.3137 6.98028Z" fill="#F22424"/>
<path fill-rule="evenodd" clip-rule="evenodd" d="M-0.240657 16.0755C-0.240657 16.4548 0.165663 16.8684 0.7819 17.4109C1.40532 17.9597 3.98127 19.2366 5.31138 19.7319C7.96682 20.7207 11.7446 21.3655 15.9999 21.3655C20.2553 21.3655 24.0331 20.7207 26.6885 19.7319C28.383 19.1009 31.0374 17.5993 31.9999 16.2296C32.7217 15.2024 31.6992 13.4562 31.6992 13.4562L33.5639 15.4078V16.7432C33.5639 18.0091 32.8683 19.1089 31.8652 19.9919C30.8693 20.8686 29.5041 21.5971 27.9388 22.1799C24.8034 23.3474 20.5812 24.0362 15.9999 24.0362C11.4187 24.0362 7.19651 23.3474 4.06109 22.1799C2.49577 21.5971 1.13055 20.8686 0.134688 19.9919C-0.868364 19.1089 -1.56396 18.0091 -1.56396 16.7432V15.4078L-0.240657 16.0755Z" fill="#393939"/>
</g>
<ellipse cx="15.9999" cy="22.7009" rx="5.05263" ry="4.00604" fill="#393939"/>
<ellipse cx="15.9999" cy="22.8036" rx="3.60902" ry="2.67069" fill="#F3F3F3"/>
<defs>
<filter id="filter0_f_115_107" x="2.13525" y="25.3776" width="27.7292" height="12.6224" filterUnits="userSpaceOnUse" color-interpolation-filters="sRGB">
<feFlood flood-opacity="0" result="BackgroundImageFix"/>
<feBlend mode="normal" in="SourceGraphic" in2="BackgroundImageFix" result="shape"/>
<feGaussianBlur stdDeviation="2" result="effect1_foregroundBlur_115_107"/>
</filter>
</defs>
</svg>
